HIERARCHY
ROOT Hips
{
	OFFSET 12.908308 96.361832 35.489651
	CHANNELS 6 Xposition Yposition Zposition Xrotation Yrotation Zrotation
	JOINT Chest
	{
		OFFSET -2.360367 13.434914 -0.293118
		CHANNELS 3 Xrotation Yrotation Zrotation
		JOINT Chest2
		{
			OFFSET -13.167846 16.849434 -1.330757
			CHANNELS 3 Xrotation Yrotation Zrotation
			JOINT Chest3
			{
				OFFSET -6.469564 13.139709 -2.883144
				CHANNELS 3 Xrotation Yrotation Zrotation
				JOINT Neck
				{
					OFFSET -6.460925 15.788559 -2.755671
					CHANNELS 3 Xrotation Yrotation Zrotation
					JOINT Head
					{
						OFFSET -1.941378 9.929062 -2.733580
						CHANNELS 3 Xrotation Yrotation Zrotation
						End Site
						{
							OFFSET -1.947742 9.908340 -2.803360
						}
					}
				}
				JOINT LeftCollar
				{
					OFFSET -0.993999 14.166473 0.356617
					CHANNELS 3 Xrotation Yrotation Zrotation
					JOINT LeftUpArm
					{
						OFFSET 15.132601 -0.442123 -8.905527
						CHANNELS 3 Xrotation Yrotation Zrotation
						JOINT LeftLowArm
						{
							OFFSET 29.649796 -16.042816 -1.801737
							CHANNELS 3 Xrotation Yrotation Zrotation
							JOINT LeftHand
							{
								OFFSET 26.659241 -2.022888 13.643311
								CHANNELS 3 Xrotation Yrotation Zrotation
								End Site
								{
									OFFSET 5.826538 -0.442139 2.981812
								}
							}
						}
					}
				}
				JOINT RightCollar
				{
					OFFSET -8.798209 11.100433 1.086517
					CHANNELS 3 Xrotation Yrotation Zrotation
					JOINT RightUpArm
					{
						OFFSET -15.153708 -5.128067 -7.250134
						CHANNELS 3 Xrotation Yrotation Zrotation
						JOINT RightLowArm
						{
							OFFSET -33.224224 5.982239 0.313267
							CHANNELS 3 Xrotation Yrotation Zrotation
							JOINT RightHand
							{
								OFFSET -28.141731 10.416306 -0.705805
								CHANNELS 3 Xrotation Yrotation Zrotation
								End Site
								{
									OFFSET -6.150650 2.276611 -0.154257
								}
							}
						}
					}
				}
			}
		}
	}
	JOINT LeftUpLeg
	{
		OFFSET 9.536142 1.730743 2.546696
		CHANNELS 3 Xrotation Yrotation Zrotation
		JOINT LeftLowLeg
		{
			OFFSET -4.707624 -43.072136 19.147247
			CHANNELS 3 Xrotation Yrotation Zrotation
			JOINT LeftFoot
			{
				OFFSET -11.274678 -38.546806 -19.687347
				CHANNELS 3 Xrotation Yrotation Zrotation
				JOINT LeftToe
				{
					OFFSET 4.223534 -16.675749 16.237007
					CHANNELS 3 Xrotation Yrotation Zrotation
					End Site
					{
						OFFSET 7.207026 -2.281798 22.414528
					}
				}
			}
		}
	}
	JOINT RightUpLeg
	{
		OFFSET -9.536111 -1.730942 -2.546692
		CHANNELS 3 Xrotation Yrotation Zrotation
		JOINT RightLowLeg
		{
			OFFSET -41.016113 -22.075638 8.622925
			CHANNELS 3 Xrotation Yrotation Zrotation
			JOINT RightFoot
			{
				OFFSET 23.662182 -30.456944 -22.650740
				CHANNELS 3 Xrotation Yrotation Zrotation
				JOINT RightToe
				{
					OFFSET -14.221193 -18.573299 -3.513842
					CHANNELS 3 Xrotation Yrotation Zrotation
					End Site
					{
						OFFSET -22.178030 -7.090685 4.172915
					}
				}
			}
		}
	}
}
MOTION
Frames: 7
Frame Time: 0.033333
-0.161355 106.130424 -1.111732 2.977551 14.722449 -10.288049 -2.670716 -3.269970 -29.308082 4.146770 -0.484472 11.324414 4.624416 -13.361007 7.007993 15.178306 2.709776 10.433104 -0.000001 -0.000001 0.000001 8.576302 6.064034 10.907260 2.424318 -0.298606 37.744909 19.168052 24.062826 -27.234469 -0.000001 0.000003 0.000001 8.106582 4.121743 11.661745 -1.225470 3.347345 19.053180 9.968374 0.115224 10.164118 0.000001 0.000001 0.000005 19.548558 7.670792 21.219282 -41.502309 12.375802 14.825228 -6.670728 -42.855715 -26.906444 -0.000000 0.000001 0.000000 10.641980 11.764937 62.791240 -12.830666 35.379601 -86.934730 -31.745162 25.815559 46.654184 0.000000 0.000000 0.000002 
-10.801804 38.803745 -1.107143 25.273477 -26.944410 9.553868 3.119593 0.909268 -37.600403 -8.393613 -2.686286 -6.607436 12.621049 -19.768068 5.227802 -3.888079 -1.966874 0.640767 -0.000001 0.000003 0.000004 0.432602 -1.409469 10.271152 -0.332278 8.907740 33.651423 -5.293826 37.093787 22.197883 -0.000000 0.000002 -0.000001 -3.013590 -3.478464 -13.550418 -7.048344 17.897278 2.470696 -0.367013 2.040574 -39.642561 -0.000001 0.000001 0.000007 -9.846953 15.885367 76.088970 59.011550 9.436647 64.637249 -4.406603 -41.104533 -34.108223 0.000000 0.000003 -0.000002 -33.289891 17.153019 -0.945433 37.440693 1.502097 33.715808 0.947669 1.432262 16.703608 0.000000 -0.000001 0.000002 
-10.807821 38.806755 -1.102207 25.801166 -27.115257 9.713338 2.976300 0.893991 -37.661936 -9.012219 -3.339899 -6.250698 13.088892 -19.402477 4.870301 -4.371781 -2.037481 0.542638 0.000000 0.000006 0.000003 0.063771 -1.066434 10.420617 -0.459688 8.482091 34.030970 -5.804866 36.490187 22.655586 0.000000 0.000000 -0.000001 -3.017625 -3.087553 -14.143578 -7.123768 18.101704 1.882288 -0.014433 2.806743 -39.897133 0.000001 0.000001 0.000001 -9.722334 16.032056 76.216585 59.660637 9.106795 63.508547 -3.539994 -41.030989 -33.510131 0.000002 0.000003 -0.000002 -32.730874 16.890793 -1.176596 36.554264 1.282229 33.404201 0.812488 1.882189 18.024459 0.000000 -0.000005 -0.000000 
-10.822964 38.814194 -1.096489 25.771835 -27.015623 9.662515 2.941925 0.880389 -37.595772 -8.775554 -3.107934 -6.286728 13.195733 -19.794161 5.063755 -4.823096 -2.035632 0.285230 -0.000000 0.000002 0.000004 0.225908 -1.366776 10.591252 -0.462519 8.207548 34.299885 -6.320388 36.079846 23.468371 0.000002 -0.000003 -0.000001 -3.169485 -3.576072 -13.940325 -7.113833 17.802511 1.536967 -0.247281 2.663907 -40.481548 0.000001 0.000000 0.000001 -9.449889 16.194276 76.119603 59.617299 9.251677 63.704321 -3.862570 -40.912003 -33.575854 0.000001 -0.000001 0.000001 -32.247963 16.719775 -1.504400 36.241516 1.165271 33.201683 0.917461 1.611664 16.859566 0.000004 0.000002 0.000005 
-10.841139 38.834732 -1.086658 26.373083 -27.298417 9.883812 2.393961 0.843123 -37.477412 -8.851106 -3.115898 -6.366208 13.270311 -19.788132 5.090333 -5.304860 -2.063385 0.261066 0.000000 -0.000003 -0.000006 0.306620 -1.318928 10.891698 -0.355930 8.116463 34.189332 -6.398323 36.690076 24.281982 0.000001 -0.000001 -0.000001 -3.284369 -4.272780 -13.491025 -6.967979 17.336362 1.406204 -0.663360 1.681774 -41.054064 0.000003 -0.000001 0.000005 -9.507581 16.324200 76.464705 60.173878 9.163987 63.026568 -3.165426 -40.705035 -32.933140 -0.000000 0.000003 -0.000002 -31.532914 16.332925 -1.740564 35.976211 0.869190 31.977672 -0.094744 2.054328 16.035356 -0.000004 0.000001 0.000001 
-10.855400 38.847595 -1.078163 26.669329 -27.371256 10.116238 2.158848 0.858797 -37.459121 -8.772624 -3.008919 -6.471151 13.361898 -20.057132 5.289548 -5.555844 -1.923140 -0.040289 0.000002 0.000003 0.000001 0.115750 -1.207950 11.001115 -0.539865 8.241850 33.908252 -7.106063 36.825887 25.379595 0.000001 -0.000001 -0.000000 -3.424900 -4.397526 -13.884458 -6.994604 18.027734 0.357720 -0.696393 1.991376 -40.540875 -0.000001 -0.000001 0.000004 -9.561588 16.259137 76.566304 60.725702 8.972869 62.404638 -2.447805 -40.800388 -32.596856 0.000002 -0.000001 0.000005 -30.511121 15.892973 -2.301579 35.796110 0.853723 31.888965 -2.762660 3.322049 14.899588 0.000002 -0.000001 0.000003 
-10.872999 38.866386 -1.070595 27.239952 -27.802145 10.421023 1.672355 0.844438 -37.185732 -9.003758 -3.001723 -6.719608 13.610449 -19.987193 5.422630 -6.324476 -1.893566 -0.388386 0.000001 -0.000001 0.000003 0.250247 -1.494408 11.200930 -0.764269 8.410727 33.998933 -8.013356 35.842336 26.402330 -0.000002 -0.000004 0.000001 -3.607547 -4.556897 -14.228569 -7.220654 17.014911 0.684010 -0.833906 2.388724 -40.983881 -0.000001 -0.000002 0.000002 -9.494189 16.312889 76.881135 61.276441 8.611053 61.637553 -1.841529 -40.050634 -31.716602 -0.000000 0.000003 -0.000002 -29.877109 15.662189 -2.470147 35.889571 0.880514 31.409356 -1.002497 2.548594 16.090239 -0.000000 0.000002 -0.000000 
